<svg 
  xmlns="http://www.w3.org/2000/svg" 
  width="60" 
  height="40" 
  viewBox="0 0 280 130"
>
  <g transform="matrix(1,0,0,1,18,24)">
    <path 
      d="M74.313 0l-28.094 78h8.469l28.094-78h-8.469zm-36.313 11.25l-2.188 1.406-34 22-1.813 1.156v4.25l1.688 
      1.219 34 24 2.313 1.594v-9.781l-26.844-18.969 26.844-17.375v-9.5zm52 0v9.5l26.844 17.375-26.844 
      18.969v9.781l2.313-1.594 34-24 1.688-1.219v-4.25l-1.813-1.156-34-22-2.188-1.406z" 
    />
  </g>
  <g transform="matrix(4.5,0,0,5,165,-6)">
    <path
      d="M8.02 15 c-0.08 -1.46 -0.74 -2.32 -2.26 -2.32 c-0.42 0 -0.78 0.06 -1.08 0.18 c-0.92 0.42 
      -1.26 1.2 -1.26 2.16 c0 0.32 0.04 0.62 0.14 0.88 c0.3 1.04 1.2 1.42 2.2 1.42 c1.52 0 2.26 -0.82 
      2.26 -2.32 z M11.82 20 l-3 0 c-0.2 -0.5 -0.38 -1 -0.5 -1.52 c-0.68 1.12 -1.72 1.62 -3 1.62 c-2.86 
      0 -4.9 -2.4 -4.9 -5.14 c0 -3.16 2.36 -5.06 5.34 -5.06 c3.18 0 5.18 2.04 5.26 5.1 c0.02 0.26 0.02 
      0.56 0.02 0.92 c0 1.4 0.22 2.8 0.78 4.08 z M16.02 15 c0 1.48 0.74 2.32 2.24 2.32 c0.42 0 0.8 -0.06 
      1.1 -0.2 c0.56 -0.22 0.94 -0.64 1.14 -1.22 c0.08 -0.28 0.12 -0.58 0.12 -0.9 s-0.04 -0.62 -0.12 
      -0.9 c-0.22 -0.62 -0.56 -0.96 -1.14 -1.24 c-0.3 -0.12 -0.68 -0.18 -1.1 -0.18 c-1.5 0 -2.24 0.84 
      -2.24 2.32 z M13.02 6 l3 0 l0 5 c0.68 -0.78 1.6 -1.1 2.62 -1.1 c2.92 0 4.98 2.34 4.98 5.14 c0 
      3.16 -2.34 5.06 -5.32 5.06 c-3.1 0 -5.28 -2.04 -5.28 -5.1 l0 -9 z" 
    />
  </g>
</svg>